<?xml version="1.0" standalone="no"?>
<!DOCTYPE svg PUBLIC "-//W3C//DTD SVG 20010904//EN"
 "http://www.w3.org/TR/2001/REC-SVG-20010904/DTD/svg10.dtd">
<svg version="1.0" xmlns="http://www.w3.org/2000/svg"
 width="734.000000pt" height="734.000000pt" viewBox="0 0 734.000000 734.000000"
 preserveAspectRatio="xMidYMid meet">
<metadata>
Created by potrace 1.14, written by Peter Selinger 2001-2017
</metadata>
<g transform="translate(0.000000,734.000000) scale(0.100000,-0.100000)"
fill="#000000" stroke="none">
<path d="M3428 7315 c-1 -1 -39 -5 -83 -9 -44 -3 -96 -8 -115 -11 -19 -2 -55
-7 -80 -10 -25 -3 -67 -10 -95 -15 -92 -18 -110 -21 -135 -25 -41 -6 -227 -53
-304 -77 -39 -12 -73 -22 -76 -23 -29 -6 -232 -81 -285 -105 -22 -10 -65 -28
-95 -41 -83 -35 -305 -150 -308 -160 -2 -5 -8 -9 -13 -9 -5 0 -38 -18 -74 -40
-36 -22 -67 -40 -70 -40 -3 0 -13 -7 -22 -15 -10 -8 -71 -51 -135 -96 -65 -45
-118 -85 -118 -90 0 -5 -6 -9 -13 -9 -7 0 -20 -8 -28 -17 -9 -10 -33 -31 -54
-48 -84 -67 -127 -107 -266 -247 -81 -81 -164 -170 -185 -198 -21 -27 -42 -50
-46 -50 -4 0 -8 -6 -8 -14 0 -8 -3 -16 -8 -18 -4 -1 -30 -32 -57 -68 -28 -36
-52 -67 -55 -70 -16 -15 -140 -208 -140 -218 0 -5 -4 -12 -9 -14 -11 -4 -124
-207 -183 -328 -77 -159 -195 -465 -212 -552 -2 -7 -6 -20 -9 -28 -4 -8 -14
-44 -22 -80 -9 -36 -17 -72 -19 -80 -10 -37 -16 -67 -21 -92 -3 -16 -7 -39
-10 -51 -3 -13 -7 -39 -9 -58 -3 -19 -6 -34 -7 -34 -1 0 -3 -9 -4 -20 -11 -80
-15 -113 -19 -130 -27 -134 -28 -769 0 -898 3 -15 7 -44 9 -65 3 -32 12 -92
29 -182 3 -14 10 -47 16 -75 6 -27 13 -63 16 -80 8 -41 10 -48 17 -65 5 -13
41 -138 52 -180 5 -21 59 -176 80 -230 19 -50 33 -83 64 -152 12 -26 21 -51
21 -56 0 -5 7 -15 15 -22 9 -7 13 -15 11 -17 -4 -4 58 -130 82 -168 4 -5 7
-12 7 -15 1 -3 16 -31 35 -63 19 -32 40 -66 45 -76 37 -63 179 -271 212 -311
7 -8 34 -42 60 -75 26 -33 52 -63 58 -67 5 -4 7 -8 4 -8 -17 0 269 -295 376
-387 104 -89 118 -101 200 -163 33 -25 62 -48 65 -51 15 -18 314 -209 327
-209 3 0 14 -6 22 -14 14 -13 198 -110 211 -111 3 -1 28 -12 55 -27 46 -23
325 -137 350 -143 39 -8 72 -19 83 -28 6 -5 12 -7 12 -3 0 3 12 1 28 -5 30
-12 242 -69 282 -75 14 -3 57 -11 95 -19 39 -8 88 -17 110 -20 22 -2 54 -7 70
-9 243 -37 685 -42 930 -11 113 14 256 37 310 50 11 2 51 11 88 19 166 37 467
134 601 195 25 12 50 21 55 21 6 0 11 4 11 8 0 5 6 9 13 9 19 0 266 126 357
183 8 5 46 28 84 51 37 24 73 47 80 53 6 6 23 17 36 25 41 23 198 144 300 229
138 116 323 301 435 437 28 33 55 65 60 71 6 6 17 22 25 34 8 12 22 30 30 40
8 10 22 27 30 37 32 39 170 254 230 357 101 176 260 524 260 571 0 8 4 15 8
15 5 0 9 6 9 13 0 6 12 46 26 87 22 68 36 116 36 130 0 3 9 31 20 63 11 31 18
57 16 57 -2 0 1 15 6 33 6 17 12 41 13 52 2 11 6 34 10 50 3 17 8 41 11 55 2
14 7 38 11 53 6 30 7 33 19 132 3 33 8 71 11 84 24 159 24 706 0 839 -4 19
-19 121 -21 137 0 6 -4 30 -9 55 -4 25 -10 56 -12 70 -4 27 -41 183 -49 213
-3 9 -7 27 -10 40 -16 73 -113 367 -126 381 -5 6 -9 16 -9 23 0 7 -13 41 -29
75 -15 35 -34 79 -41 98 -7 19 -17 40 -21 45 -4 6 -37 68 -74 140 -36 71 -73
137 -81 146 -8 8 -14 19 -14 22 0 4 -21 39 -47 79 -27 40 -51 81 -55 91 -4 9
-12 17 -18 17 -5 0 -10 5 -10 11 0 6 -9 23 -20 37 -12 15 -46 61 -77 102 -31
41 -59 77 -62 80 -3 3 -24 27 -46 55 -71 89 -235 259 -351 365 -109 100 -353
290 -372 290 -6 0 -12 4 -14 8 -4 9 -93 72 -103 72 -3 0 -21 11 -38 24 -58 43
-419 236 -442 236 -3 0 -27 10 -53 21 -86 39 -128 55 -162 64 -3 1 -16 6 -30
12 -26 11 -213 70 -307 97 -28 8 -54 12 -57 9 -3 -3 -11 -1 -18 5 -7 6 -33 13
-58 17 -24 4 -47 8 -50 10 -3 2 -26 6 -50 10 -25 3 -52 8 -60 10 -23 6 -128
22 -205 31 -27 3 -68 7 -90 10 -46 5 -561 14 -567 9z"/>
</g>
</svg>
