<?xml version="1.0" standalone="no"?>
<!DOCTYPE svg PUBLIC "-//W3C//DTD SVG 20010904//EN"
 "http://www.w3.org/TR/2001/REC-SVG-20010904/DTD/svg10.dtd">
<svg version="1.0" xmlns="http://www.w3.org/2000/svg"
 width="700.000000pt" height="700.000000pt" viewBox="0 0 700.000000 700.000000"
 preserveAspectRatio="xMidYMid meet">
<metadata>
Created by potrace 1.14, written by Peter Selinger 2001-2017
</metadata>
<g transform="translate(0.000000,700.000000) scale(0.100000,-0.100000)"
fill="#000000" stroke="none">
<path d="M3195 6819 c-1318 -122 -2440 -1015 -2860 -2274 -193 -579 -218
-1243 -70 -1845 296 -1198 1237 -2139 2435 -2435 520 -128 1078 -128 1600 0
1195 294 2139 1238 2435 2435 128 520 128 1080 0 1600 -274 1109 -1101 2002
-2190 2365 -223 74 -503 132 -755 155 -132 12 -463 11 -595 -1z m1925 -851 c0
-24 -274 -848 -283 -848 -4 0 -305 106 -668 235 -362 129 -662 235 -665 235
-3 0 -170 -59 -371 -130 l-364 -130 -440 316 c-241 174 -442 320 -445 325 -3
5 650 9 1615 9 1216 0 1621 -3 1621 -12z m-3067 -434 c409 -297 420 -305 412
-312 -2 -3 -208 -78 -457 -166 l-453 -162 2 -30 c2 -16 37 -328 79 -692 75
-658 76 -664 56 -678 -11 -7 -249 -180 -528 -383 -280 -203 -511 -368 -513
-365 -3 2 220 695 494 1539 367 1128 503 1534 513 1530 7 -2 185 -129 395
-281z m3806 -1270 c270 -831 491 -1514 491 -1517 0 -4 -259 -7 -575 -7 l-574
0 4 28 c10 53 246 2125 243 2127 -2 2 -75 29 -164 60 -88 31 -166 60 -172 64
-9 5 11 81 73 272 160 493 167 512 175 498 5 -8 229 -694 499 -1525z m-2340
839 c30 -65 1185 -2651 1198 -2680 l13 -33 -232 0 -233 0 -122 303 -122 302
-521 0 -522 0 -121 -302 -121 -303 -234 0 c-128 0 -232 4 -230 9 27 70 1225
2731 1229 2731 3 0 11 -12 18 -27z m-1769 -1920 c0 -29 98 -865 102 -867 2 -2
250 -140 552 -306 301 -167 557 -311 567 -319 12 -11 81 -205 197 -561 98
-300 177 -547 176 -549 -5 -6 -2614 1883 -2612 1891 5 13 991 726 1006 727 6
1 12 -7 12 -16z m4520 -711 c0 -15 -2621 -1895 -2630 -1886 -10 11 -301 896
-296 901 2 2 38 -16 81 -41 l78 -43 31 17 c17 10 387 215 821 455 435 240 792
439 793 440 2 2 9 40 14 84 l11 81 548 0 c302 0 549 -4 549 -8z"/>
<path d="M3494 4215 c-4 -11 -83 -200 -175 -420 l-167 -400 346 -3 c190 -1
347 0 349 2 2 2 -71 183 -162 402 -92 220 -171 408 -175 419 l-8 20 -8 -20z"/>
</g>
</svg>
