<?xml version="1.0" standalone="no"?>
<!DOCTYPE svg PUBLIC "-//W3C//DTD SVG 20010904//EN"
 "http://www.w3.org/TR/2001/REC-SVG-20010904/DTD/svg10.dtd">
<svg version="1.0" xmlns="http://www.w3.org/2000/svg"
 width="734.000000pt" height="734.000000pt" viewBox="0 0 734.000000 734.000000"
 preserveAspectRatio="xMidYMid meet">
<metadata>
Created by potrace 1.14, written by Peter Selinger 2001-2017
</metadata>
<g transform="translate(0.000000,734.000000) scale(0.100000,-0.100000)"
fill="#000000" stroke="none">
<path d="M3434 7070 c-735 -51 -1414 -326 -1979 -802 -123 -104 -354 -341
-452 -465 -369 -464 -608 -997 -702 -1563 -35 -210 -45 -333 -45 -570 0 -314
26 -533 98 -825 224 -909 830 -1697 1660 -2158 374 -208 775 -338 1231 -398
187 -24 570 -30 745 -10 592 66 1095 247 1565 562 838 562 1378 1455 1490
2464 21 188 21 556 0 740 -54 468 -195 903 -420 1300 -538 950 -1499 1587
-2575 1709 -171 19 -460 27 -616 16z m1926 -815 c0 -2 -47 -147 -105 -322 -57
-175 -121 -370 -141 -433 -20 -63 -40 -118 -43 -123 -4 -4 -254 81 -557 189
-597 213 -651 232 -752 269 -37 14 -77 25 -88 25 -11 0 -184 -58 -384 -130
-199 -71 -368 -131 -375 -132 -11 -3 -925 648 -925 658 0 2 758 4 1685 4 927
0 1685 -2 1685 -5z m-3202 -457 c228 -167 420 -306 426 -310 6 -4 8 -10 4 -13
-3 -3 -194 -73 -424 -156 -231 -82 -444 -158 -475 -170 l-55 -20 17 -147 c17
-140 33 -286 114 -991 20 -168 32 -308 28 -312 -24 -22 -1098 -797 -1101 -794
-4 3 48 165 339 1060 77 237 165 504 194 595 30 91 144 444 255 785 111 341
213 655 226 698 14 42 27 77 30 77 3 0 193 -136 422 -302z m3615 -215 c87
-269 187 -576 222 -683 165 -505 476 -1463 557 -1715 50 -154 93 -286 95 -292
4 -10 -119 -13 -596 -13 -463 0 -601 3 -601 12 0 7 7 66 15 133 8 66 37 318
65 560 27 242 54 476 60 520 10 87 28 237 60 520 12 99 29 252 40 340 10 88
15 163 12 166 -4 4 -86 35 -182 69 -96 34 -176 63 -177 64 -1 1 45 146 103
321 57 176 116 357 130 403 14 45 28 82 32 82 4 0 78 -219 165 -487z m-2000
-419 c75 -168 260 -581 679 -1519 373 -833 498 -1115 498 -1120 0 -3 -109 -4
-242 -3 l-243 3 -127 315 -127 315 -541 0 -542 0 -124 -309 c-68 -170 -129
-315 -135 -322 -9 -11 -59 -14 -240 -14 -135 0 -230 4 -234 10 -3 5 101 247
231 537 130 290 256 571 279 623 23 52 160 358 305 680 144 322 300 670 347
774 111 248 113 253 124 234 4 -8 46 -100 92 -204z m-1885 -2261 c33 -289 57
-462 65 -469 6 -6 271 -154 587 -328 316 -175 579 -321 583 -326 11 -10 378
-1131 375 -1142 -2 -4 -592 418 -1313 938 -720 520 -1334 963 -1363 984 l-54
38 528 381 c290 209 531 381 534 381 3 0 29 -206 58 -457z m4661 -321 c-13
-10 -467 -338 -1009 -727 -542 -390 -1147 -825 -1345 -968 -198 -143 -364
-261 -370 -263 -12 -5 -326 939 -315 944 4 1 39 -15 78 -38 39 -22 77 -40 83
-40 10 0 580 313 1504 826 l220 122 9 81 9 81 580 0 c564 0 579 0 556 -18z"/>
<path d="M3667 4423 c-16 -26 -358 -855 -354 -859 2 -2 166 -3 364 -2 l360 3
-179 430 c-98 236 -181 431 -183 433 -1 2 -5 0 -8 -5z"/>
</g>
</svg>
