<svg viewBox="0 0 512 512" xmlns="http://www.w3.org/2000/svg">
  <circle r="250" cx="256" cy="256" stroke="#BFBFBF" stroke-width="12" fill="#1F303E" />
  <g transform="translate(-640 -247) scale(1.4)">
    <path fill="#81AEFC" d="M788.944 398.983 684.944 398.976 736.936 238.983Z" />
    <path fill="#4D52AF" d="M724.943 229.983 692.473 328.983 554.943 229.983Z" />
    <path fill="#EE601D" d="M494.943 413.089 579.607 351.983 631.943 511.983Z" />
    <path fill="#F6BD9C" d="M543.279 237.983 627.943 299.477 490.943 398.983Z" />
    <path fill="#E6E6E6" d="M647.402 511.983 614.943 412.994 784.943 412.983Z" />
    <path fill="#DD0031" d="M640 250 538 286.354 553.557 421.149 640 469 726.443 421.149 742 286.354Z" />
    <path fill="#C3002F" d="M640 250 640 274.309 640 274.2 640 469 726.443 421.149 742 286.354 640 250Z" />
    <path fill="#efefef" d="M640.11 274 576 417 599.904 417 612.792 385.003 667.208 385.003 680.096 417 704 417 640.11 274ZM658.837 365.279 621.384 365.279 640.11 320.461 658.837 365.279Z" />
  </g>
</svg>
