<svg width="366" height="367" xmlns="http://www.w3.org/2000/svg" xmlns:xlink="http://www.w3.org/1999/xlink" overflow="hidden"><defs><clipPath id="clip0"><rect x="457" y="176" width="366" height="367"/></clipPath></defs><g clip-path="url(#clip0)" transform="translate(-457 -176)"><path d="M462.943 359.483C462.943 262.005 541.965 182.983 639.443 182.983 736.921 182.983 815.943 262.005 815.943 359.483 815.943 456.961 736.921 535.983 639.443 535.983 541.965 535.983 462.943 456.961 462.943 359.483Z" stroke="#BFBFBF" stroke-width="12" stroke-miterlimit="8" fill="#1F303E" fill-rule="evenodd"/><path d="M788.944 398.983 684.944 398.976 736.936 238.983Z" fill="#81AEFC" fill-rule="evenodd"/><path d="M724.943 229.983 692.473 328.983 554.943 229.983Z" fill="#4D52AF" fill-rule="evenodd"/><path d="M494.943 413.089 579.607 351.983 631.943 511.983Z" fill="#EE601D" fill-rule="evenodd"/><path d="M543.279 237.983 627.943 299.477 490.943 398.983Z" fill="#F6BD9C" fill-rule="evenodd"/><path d="M647.402 511.983 614.943 412.994 784.943 412.983Z" fill="#E6E6E6" fill-rule="evenodd"/><path d="M640 250 538 286.354 553.557 421.149 640 469 726.443 421.149 742 286.354Z" fill="#DD0031" fill-rule="evenodd"/><path d="M640 250 640 274.309 640 274.2 640 469 726.443 421.149 742 286.354 640 250Z" fill="#C3002F" fill-rule="evenodd"/><path d="M640.11 274 576 417 599.904 417 612.792 385.003 667.208 385.003 680.096 417 704 417 640.11 274ZM658.837 365.279 621.384 365.279 640.11 320.461 658.837 365.279Z" fill="#FFFFFF" fill-rule="evenodd"/></g></svg>